<?xml version="1.0" encoding="utf-8"?>

<!-- Y-Pentominoe Symmetry  -->

<!DOCTYPE svg PUBLIC "-//W3C//DTD SVG 1.1//EN" "http://www.w3.org/Graphics/SVG/1.1/DTD/svg11.dtd" [
	<!ENTITY ns_svg "http://www.w3.org/2000/svg">
	<!ENTITY ns_xlink "http://www.w3.org/1999/xlink">
]>

<svg  version="1.1" 
      id="Layer_1" 
      xmlns="&ns_svg;" 
      xmlns:xlink="&ns_xlink;" 
      width="375" 
      height="200" 
      viewBox="0 0 375 200"
	    overflow="visible" 
	    enable-background="new 0 0 375 200" 
	    xml:space="preserve">
	 
<g id="All_Ys" fill="#CC88CC" stroke="#000000" stroke-width="0.25">

   <g id="Y_1">
   	<rect x="150" y="75" width="25" height="25"/>
   	<rect x="150" y="100" width="25" height="25"/>
   	<rect x="150" y="125" width="25" height="25"/>
   	<rect x="150" y="150" width="25" height="25"/>
   	<rect x="125" y="100" width="25" height="25"/>
   	<polygon fill="none" stroke="#000000" stroke-width="3" points="175, 175  150, 175  150, 125  125, 125  125, 100 150, 100  150, 75  175, 75"/>
   </g>
   <g id="Y_2">
   	<rect x="75" y="25" width="25" height="25"/>
   	<rect x="100" y="25" width="25" height="25"/>
   	<rect x="125" y="25" width="25" height="25"/>
   	<rect x="150" y="25" width="25" height="25"/>
   	<rect x="100" y="50" width="25" height="25"/>
   	<polygon fill="none" stroke="#000000" stroke-width="3" points="175, 25  175, 50  125, 50  125, 75  100, 75 100, 50  75, 50  75, 25"/>
   </g>
   <g id="Y_3">
   	<rect x="25" y="100" width="25" height="25"/>
   	<rect x="25" y="75" width="25" height="25"/>
   	<rect x="25" y="50" width="25" height="25"/>
   	<rect x="25" y="25" width="25" height="25"/>
   	<rect x="50" y="75" width="25" height="25"/>
   	<polygon fill="none" stroke="#000000" stroke-width="3" points="25, 25  50, 25  50, 75  75, 75  75, 100  50, 100 50, 125  25, 125"/>
   </g>
   <g id="Y_4_">
   	<rect x="100" y="150" width="25" height="25"/>
   	<rect x="75" y="150" width="25" height="25"/>
   	<rect x="50" y="150" width="25" height="25"/>
   	<rect x="25" y="150" width="25" height="25"/>
   	<rect x="75" y="125" width="25" height="25"/>
   	<polygon fill="none" stroke="#000000" stroke-width="3" points="25, 175  25, 150  75, 150  75, 125  100, 125 100, 150  125, 150  125, 175"/>
   </g>
   <g id="Y_5">
   	<rect x="200" y="75" width="25" height="25"/>
   	<rect x="200" y="100" width="25" height="25"/>
   	<rect x="200" y="125" width="25" height="25"/>
   	<rect x="200" y="150" width="25" height="25"/>
   	<rect x="225" y="100" width="25" height="25"/>
   	<polygon fill="none" stroke="#000000" stroke-width="3" points="200, 75  225, 75  225, 100  250, 100  250, 125 225, 125  225, 175  200, 175"/>
   </g>
   <g id="Y_6">
   	<rect x="275" y="25" width="25" height="25"/>
   	<rect x="250" y="25" width="25" height="25"/>
   	<rect x="225" y="25" width="25" height="25"/>
   	<rect x="200" y="25" width="25" height="25"/>
   	<rect x="250" y="50" width="25" height="25"/>
   	<polygon fill="none" stroke="#000000" stroke-width="3" points="300, 25  300, 50  275, 50  275, 75  250, 75 250, 50  200, 50  200, 25"/>
   </g>
   <g id="Y_7">
   	<rect x="325" y="100" width="25" height="25"/>
   	<rect x="325" y="75" width="25" height="25"/>
   	<rect x="325" y="50" width="25" height="25"/>
   	<rect x="325" y="25" width="25" height="25"/>
   	<rect x="300" y="75" width="25" height="25"/>
   	<polygon fill="none" stroke="#000000" stroke-width="3" points="350, 125  325, 125  325, 100  300, 100  300, 75 325, 75  325, 25  350, 25"/>
   </g>
   <g id="Y_8">
   	<rect x="250" y="150" width="25" height="25"/>
   	<rect x="275" y="150" width="25" height="25"/>
   	<rect x="300" y="150" width="25" height="25"/>
   	<rect x="325" y="150" width="25" height="25"/>
   	<rect x="275" y="125" width="25" height="25"/>
   	<polygon fill="none" stroke="#000000" stroke-width="3" points="250, 175  250, 150  275, 150  275, 125  300, 125 300, 150  350, 150  350, 175"/>
   </g>
   
</g>

</svg>
